<?xml version="1.0" standalone="no"?><!DOCTYPE svg PUBLIC "-//W3C//DTD SVG 1.1//EN" "http://www.w3.org/Graphics/SVG/1.1/DTD/svg11.dtd"><svg t="1652881625079" class="icon" viewBox="0 0 1024 1024" version="1.1" xmlns="http://www.w3.org/2000/svg" p-id="1121" xmlns:xlink="http://www.w3.org/1999/xlink" width="200" height="200"><defs><style type="text/css">@font-face { font-family: feedback-iconfont; src: url("//at.alicdn.com/t/font_1031158_u69w8yhxdu.woff2?t=1630033759944") format("woff2"), url("//at.alicdn.com/t/font_1031158_u69w8yhxdu.woff?t=1630033759944") format("woff"), url("//at.alicdn.com/t/font_1031158_u69w8yhxdu.ttf?t=1630033759944") format("truetype"); }
</style></defs><path d="M135.516 187.013a64.392 64.392 0 0 1 43.086 16.552l289.614 260.727c26.527 23.882 28.742 64.825 4.947 91.45a64.643 64.643 0 0 1-4.947 4.965L178.602 821.434c-26.528 23.882-67.323 21.659-91.118-4.965a64.893 64.893 0 0 1-16.492-43.242V251.773c0-35.766 28.888-64.76 64.524-64.76z m462.353 0a64.392 64.392 0 0 1 43.085 16.552l289.614 260.727c26.528 23.882 28.743 64.825 4.948 91.45a64.643 64.643 0 0 1-4.948 4.965L640.954 821.434c-26.528 23.882-67.322 21.659-91.118-4.965a64.893 64.893 0 0 1-16.492-43.242V251.773c0-35.766 28.889-64.76 64.525-64.76z" fill="#333333" p-id="1122"></path></svg>